<svg xmlns="http://www.w3.org/2000/svg" width="128" height="128" viewBox="0 0 128 128"><defs>
<linearGradient id="cream" x1="0" y1="0" x2=".8" y2="1"><stop stop-color="#fff3d6"/><stop offset=".52" stop-color="#e7d1a9"/><stop offset="1" stop-color="#b29c7f"/></linearGradient>
<linearGradient id="orange" x1="0" y1="0" x2=".7" y2="1"><stop stop-color="#f6b04c"/><stop offset=".5" stop-color="#d87f2c"/><stop offset="1" stop-color="#935126"/></linearGradient>
<linearGradient id="metal" x1="0" y1="0" x2="1" y2="1"><stop stop-color="#797669"/><stop offset=".5" stop-color="#434a45"/><stop offset="1" stop-color="#242f2d"/></linearGradient>
<linearGradient id="glass" x1="0" y1="0" x2=".8" y2="1"><stop stop-color="#365f58"/><stop offset=".5" stop-color="#163f3d"/><stop offset="1" stop-color="#0e2e31"/></linearGradient>
<radialGradient id="skin" cx=".3" cy=".22" r=".85"><stop stop-color="#bac58a"/><stop offset=".57" stop-color="#98a46b"/><stop offset="1" stop-color="#697a52"/></radialGradient>
<linearGradient id="cloth" x1="0" y1="0" x2="1" y2="1"><stop stop-color="#688178"/><stop offset=".6" stop-color="#425f59"/><stop offset="1" stop-color="#2b4440"/></linearGradient>
<radialGradient id="eye"><stop stop-color="#fff5c6"/><stop offset=".65" stop-color="#ffdc77"/><stop offset="1" stop-color="#dfa940"/></radialGradient>
</defs><g stroke="#514b39" stroke-width="1.4" stroke-linecap="round" stroke-linejoin="round"><rect x="49" y="30" width="26" height="27" rx="10" fill="url(#metal)"/><circle cx="62" cy="43" r="9" fill="#777262"/><circle cx="62" cy="43" r="5" fill="#454b44"/>
<path d="M53 55l-1 16h21l-2-16" fill="url(#metal)"/><path d="M57 58v10" stroke="#b4ab93" stroke-width="4"/>
<path d="M49 69q12-5 26 0 14 10 17 27H31q2-18 18-27z" fill="url(#cream)"/>
<path d="M42 82q17-8 39 0l6 15H36z" fill="url(#orange)"/><path d="M44 82l-2 7" stroke="#ffc976" stroke-width="3"/>
<path d="M32 96h59v8H31z" fill="url(#metal)"/>
<circle cx="35" cy="89" r="7" fill="url(#metal)"/><circle cx="35" cy="89" r="3" fill="#8f8a74"/>
<g fill="#ae8251" stroke="none" opacity=".72"><path d="M66 74l5-1-1 3-4 1z"/><path d="M74 79l3-1 1 2-3 1z"/><circle cx="62" cy="80" r="1"/></g><circle cx="79" cy="91" r="1.8" fill="#b1a081"/><path d="M78 90l1.5 1.5" stroke="#695f4c" stroke-width=".8"/></g></svg>
