<svg xmlns="http://www.w3.org/2000/svg" width="128" height="128" viewBox="0 0 128 128"><defs>
<linearGradient id="cream" x1="0" y1="0" x2=".8" y2="1"><stop stop-color="#fff3d6"/><stop offset=".52" stop-color="#e7d1a9"/><stop offset="1" stop-color="#b29c7f"/></linearGradient>
<linearGradient id="orange" x1="0" y1="0" x2=".7" y2="1"><stop stop-color="#f6b04c"/><stop offset=".5" stop-color="#d87f2c"/><stop offset="1" stop-color="#935126"/></linearGradient>
<linearGradient id="metal" x1="0" y1="0" x2="1" y2="1"><stop stop-color="#797669"/><stop offset=".5" stop-color="#434a45"/><stop offset="1" stop-color="#242f2d"/></linearGradient>
<linearGradient id="glass" x1="0" y1="0" x2=".8" y2="1"><stop stop-color="#365f58"/><stop offset=".5" stop-color="#163f3d"/><stop offset="1" stop-color="#0e2e31"/></linearGradient>
<radialGradient id="skin" cx=".3" cy=".22" r=".85"><stop stop-color="#bac58a"/><stop offset=".57" stop-color="#98a46b"/><stop offset="1" stop-color="#697a52"/></radialGradient>
<linearGradient id="cloth" x1="0" y1="0" x2="1" y2="1"><stop stop-color="#688178"/><stop offset=".6" stop-color="#425f59"/><stop offset="1" stop-color="#2b4440"/></linearGradient>
<radialGradient id="eye"><stop stop-color="#fff5c6"/><stop offset=".65" stop-color="#ffdc77"/><stop offset="1" stop-color="#dfa940"/></radialGradient>
</defs><g stroke="#514b39" stroke-width="1.4" stroke-linecap="round" stroke-linejoin="round"><rect x="18" y="54" width="92" height="24" rx="6" fill="#594534"/><path d="M20 59h88m-88 14h88" stroke="#b08a56"/><path d="M25 49h23v37H24zm55 0h23l1 36H80z" fill="url(#orange)"/><path d="M29 54h15v12H29zm55 0h15v12H84z" fill="#b36d32"/><rect x="54" y="52" width="21" height="29" rx="3" fill="url(#cream)"/><rect x="59" y="57" width="11" height="18" rx="1" fill="#66523a"/><path d="M35 50V35l-6-6 2-9 5 8 5-8 2 9-6 6v15" fill="url(#metal)"/><path d="M92 50V28" stroke="#485049" stroke-width="5"/><path d="M89 25h6v10h-6z" fill="#d19a4f"/><circle cx="36" cy="68" r="1.8" fill="#b1a081"/><path d="M35 67l1.5 1.5" stroke="#695f4c" stroke-width=".8"/><circle cx="92" cy="68" r="1.8" fill="#b1a081"/><path d="M91 67l1.5 1.5" stroke="#695f4c" stroke-width=".8"/></g></svg>
